<?xml version="1.0" standalone="no"?><!DOCTYPE svg PUBLIC "-//W3C//DTD SVG 1.1//EN" "http://www.w3.org/Graphics/SVG/1.1/DTD/svg11.dtd"><svg t="1768533267883" class="icon" viewBox="0 0 1024 1024" version="1.1" xmlns="http://www.w3.org/2000/svg" p-id="13451" xmlns:xlink="http://www.w3.org/1999/xlink" width="200" height="200"><path d="M791.552 1007.616H343.04c-53.248 0-96.256-43.008-96.256-96.256V340.992c0-19.456 15.36-34.816 34.816-34.816s34.816 15.36 34.816 34.816v569.344c0 15.36 12.288 27.648 27.648 27.648h448.512c15.36 0 27.648-12.288 27.648-27.648V340.992c0-19.456 15.36-34.816 34.816-34.816s34.816 15.36 34.816 34.816v569.344c-2.048 53.248-45.056 97.28-98.304 97.28zM942.08 271.36H192.512c-19.456 0-34.816-15.36-34.816-34.816s15.36-34.816 34.816-34.816H942.08c19.456 0 34.816 15.36 34.816 34.816s-15.36 34.816-34.816 34.816z" fill="#4C4C4C" p-id="13452"></path><path d="M784.384 271.36H350.208V139.264c0-58.368 48.128-106.496 106.496-106.496h221.184c58.368 0 106.496 48.128 106.496 106.496v132.096z m-365.568-68.608h296.96v-64.512c0-21.504-17.408-37.888-37.888-37.888H456.704c-21.504 0-37.888 17.408-37.888 37.888v64.512z" fill="#4C4C4C" p-id="13453"></path><path d="M416.768 888.832c-23.552 0-43.008-19.456-43.008-43.008V585.728c0-23.552 19.456-43.008 43.008-43.008s43.008 19.456 43.008 43.008v260.096c0 23.552-19.456 43.008-43.008 43.008z" fill="#FFA028" p-id="13454"></path></svg>